# This file uses centimeters as units for non-parametric coordinates.

mtllib Node-O face.mtl
g default
v -0.900000 2.457825 0.296270
v 0.900000 2.457825 0.296270
v -0.900000 1.558341 0.326732
v 0.900000 1.558341 0.326732
v -0.741041 1.652004 0.744176
v 0.741041 1.652004 0.744176
v 0.741041 2.392620 0.719094
v -0.741041 2.392620 0.719094
v -0.741041 1.653301 0.727616
v 0.741041 1.653301 0.727616
v 0.741041 2.393917 0.702535
v -0.741041 2.393917 0.702535
v -0.900000 1.571946 0.728466
v -0.877062 1.590358 0.746263
v 0.900000 1.571946 0.728466
v 0.877062 1.590358 0.746263
v -0.900000 2.471430 0.698004
v -0.877062 2.454265 0.717006
v 0.900000 2.471430 0.698004
v 0.877062 2.454265 0.717006
vt 0.625000 0.500000
vt 0.375000 0.750000
vt 0.375000 0.000000
vt 0.625000 0.000000
vt 0.625000 0.250000
vt 0.375000 0.250000
vt 0.364051 0.000000
vt 0.378186 1.000000
vt 0.625000 0.989051
vt 0.621814 1.000000
vt 0.635949 0.250000
vt 0.375000 0.260949
vt 0.378186 0.250000
vt 0.625000 0.260949
vt 0.375000 0.500000
vt 0.625000 0.750000
vt 0.375000 0.989051
vt 0.635949 -0.000000
vt 0.875000 0.000000
vt 0.875000 0.250000
vt 0.125000 0.000000
vt 0.364051 0.250000
vt 0.125000 0.250000
vt 0.625000 0.001758
vt 0.375000 0.000000
vt 0.625000 0.247865
vt 0.625000 0.000000
vt 0.375000 0.248242
vt 0.625000 0.250000
vt 0.375000 0.002135
vt 0.375000 0.250000
vn 0.000000 0.033846 0.999427
vn 0.000000 0.033846 0.999427
vn 0.000000 0.033846 0.999427
vn 0.000000 0.033846 0.999427
vn 0.000000 -0.033847 -0.999427
vn 0.000000 -0.033847 -0.999427
vn 0.000000 -0.033847 -0.999427
vn 0.000000 -0.033847 -0.999427
vn 0.000000 0.996944 0.078117
vn 0.000000 0.996944 0.078117
vn 0.000000 0.996944 0.078117
vn 0.000000 0.996944 0.078117
vn -1.000000 -0.000000 0.000000
vn -1.000000 -0.000000 0.000000
vn -1.000000 -0.000000 0.000000
vn -1.000000 -0.000000 0.000000
vn 0.000000 -0.996946 -0.078100
vn 0.000000 -0.996946 -0.078100
vn 0.000000 -0.996946 -0.078100
vn 0.000000 -0.996946 -0.078100
vn 1.000000 -0.000000 0.000000
vn 1.000000 -0.000000 0.000000
vn 1.000000 -0.000000 0.000000
vn 1.000000 -0.000000 0.000000
vn -0.625942 0.026396 0.779423
vn -0.625942 0.026396 0.779423
vn -0.625942 0.026396 0.779423
vn -0.625942 0.026396 0.779423
vn 0.000000 -0.695014 0.718997
vn 0.000000 -0.695014 0.718997
vn 0.000000 -0.695014 0.718997
vn 0.000000 -0.695014 0.718997
vn 0.625942 0.026396 0.779423
vn 0.625942 0.026396 0.779423
vn 0.625942 0.026396 0.779423
vn 0.625942 0.026396 0.779423
vn 0.000000 0.742073 0.670320
vn 0.000000 0.742072 0.670320
vn 0.000000 0.742072 0.670320
vn 0.000000 0.742073 0.670320
vn 0.000000 0.999427 -0.033845
vn 0.000000 0.999427 -0.033845
vn 0.000000 0.999427 -0.033845
vn 0.000000 0.999427 -0.033845
vn 0.000000 -0.999427 0.033846
vn 0.000000 -0.999427 0.033846
vn 0.000000 -0.999427 0.033846
vn 0.000000 -0.999427 0.033846
vn 1.000000 0.000000 0.000000
vn 1.000000 0.000000 0.000000
vn 1.000000 0.000000 0.000000
vn 1.000000 0.000000 0.000000
vn -1.000000 0.000000 0.000000
vn -1.000000 0.000000 0.000000
vn -1.000000 0.000000 0.000000
vn -1.000000 0.000000 0.000000
vn 0.000000 0.033847 0.999427
vn -0.000000 0.033847 0.999427
vn -0.000000 0.033847 0.999427
vn 0.000000 0.033847 0.999427
vn -0.000000 0.033847 0.999427
vn -0.000000 0.033847 0.999427
vn 0.000000 0.033847 0.999427
vn 0.000000 0.033847 0.999427
s off
g pCube2
usemtl initialShadingGroup
f 9/3/1 10/4/2 11/5/3 12/6/4
f 1/15/5 2/1/6 4/16/7 3/2/8
f 5/25/9 6/27/10 10/4/11 9/3/12
f 6/27/13 7/29/14 11/5/15 10/4/16
f 7/29/17 8/31/18 12/6/19 11/5/20
f 8/31/21 5/25/22 9/3/23 12/6/24
f 13/7/25 14/30/26 18/28/27 17/22/28
f 14/8/29 13/17/30 15/9/31 16/10/32
f 16/24/33 15/18/34 19/11/35 20/26/36
f 17/12/37 18/13/38 20/26/39 19/14/40
f 17/12/41 19/14/42 2/1/43 1/15/44
f 3/2/45 4/16/46 15/9/47 13/17/48
f 15/18/49 4/19/50 2/20/51 19/11/52
f 3/21/53 13/7/54 17/22/55 1/23/56
s 1
f 14/30/57 16/24/58 6/27/59 5/25/60
f 16/24/58 20/26/61 7/29/62 6/27/59
f 20/26/61 18/28/63 8/31/64 7/29/62
f 18/28/63 14/30/57 5/25/60 8/31/64
