# This file uses centimeters as units for non-parametric coordinates.

mtllib Node-O head.mtl
g default
v -1.994223 1.733963 0.539908
v -1.988547 1.819338 0.622401
v -2.074203 1.820476 0.535454
v 2.074203 1.820476 0.535454
v 1.991072 1.817006 0.622518
v 1.994223 1.733963 0.539908
v -1.889022 4.176453 0.423689
v -1.805859 4.173390 0.504171
v -1.802509 4.256433 0.419773
v 1.802509 4.256433 0.419773
v 1.807570 4.175239 0.504078
v 1.889022 4.176453 0.423689
v -1.625803 4.173470 -0.835091
v -1.551152 4.256433 -0.835752
v -1.553984 4.173248 -0.918349
v 1.553984 4.173248 -0.918349
v 1.549498 4.256433 -0.833830
v 1.625803 4.173470 -0.835091
v -1.784959 1.820476 -1.156786
v -1.713350 1.817147 -1.243696
v -1.716132 1.733963 -1.159286
v 1.716132 1.733963 -1.159286
v 1.712135 1.818452 -1.243659
v 1.784959 1.820476 -1.156786
vt 0.380213 0.983824
vt 0.375408 0.982994
vt 0.375408 0.766642
vt 0.380084 0.002705
vt 0.380150 0.008461
vt 0.624592 0.982994
vt 0.619787 0.983824
vt 0.624592 0.766642
vt 0.641196 0.008574
vt 0.375000 0.266668
vt 0.375000 0.481901
vt 0.380010 0.241770
vt 0.619586 0.241953
vt 0.625000 0.267085
vt 0.375000 0.506732
vt 0.375000 0.739795
vt 0.380326 0.482447
vt 0.619546 0.482027
vt 0.625000 0.506803
vt 0.625000 0.739877
vt 0.380542 0.741756
vt 0.619907 0.741626
vt 0.619787 0.766176
vt 0.619463 0.008230
vt 0.380326 0.267553
vt 0.619673 0.267553
vt 0.380542 0.508244
vt 0.619986 0.508244
vt 0.380213 0.766176
vt 0.857549 0.008574
vt 0.856786 0.241778
vt 0.142451 0.008574
vt 0.358804 0.008574
vt 0.358803 0.242073
vt 0.143214 0.241778
vt 0.619658 0.002705
vt 0.641197 0.242073
vt 0.625000 0.482333
vn -0.751459 -0.647693 -0.125708
vn -0.751459 -0.647693 -0.125708
vn -0.751459 -0.647693 -0.125708
vn -0.751459 -0.647693 -0.125708
vn -0.000215 -0.700040 0.714103
vn -0.000215 -0.700040 0.714103
vn -0.000215 -0.700040 0.714103
vn -0.000215 -0.700040 0.714103
vn -0.700242 0.089278 0.708301
vn -0.700242 0.089278 0.708301
vn -0.700242 0.089278 0.708301
vn -0.700242 0.089278 0.708301
vn 0.751459 -0.647693 -0.125708
vn 0.751459 -0.647693 -0.125708
vn 0.751459 -0.647693 -0.125708
vn 0.751459 -0.647693 -0.125708
vn 0.709067 0.089608 0.699424
vn 0.709067 0.089608 0.699424
vn 0.709067 0.089608 0.699424
vn 0.709067 0.089608 0.699424
vn -0.705475 0.693701 -0.145205
vn -0.705475 0.693701 -0.145205
vn -0.705475 0.693701 -0.145205
vn -0.705475 0.693701 -0.145205
vn -0.000175 0.716526 0.697560
vn -0.000175 0.716526 0.697560
vn -0.000175 0.716526 0.697560
vn -0.000175 0.716526 0.697560
vn 0.701089 0.698200 -0.144884
vn 0.701089 0.698200 -0.144885
vn 0.701089 0.698200 -0.144884
vn 0.701089 0.698200 -0.144885
vn -0.755767 0.139045 -0.639908
vn -0.755767 0.139045 -0.639908
vn -0.755767 0.139045 -0.639908
vn -0.755767 0.139045 -0.639908
vn 0.000218 0.708692 -0.705518
vn 0.000218 0.708692 -0.705518
vn 0.000218 0.708692 -0.705518
vn 0.000218 0.708692 -0.705518
vn 0.753556 0.139091 -0.642500
vn 0.753556 0.139090 -0.642500
vn 0.753556 0.139090 -0.642500
vn 0.753556 0.139091 -0.642500
vn 0.000139 -0.709433 -0.704773
vn 0.000139 -0.709433 -0.704773
vn 0.000139 -0.709433 -0.704773
vn 0.000139 -0.709433 -0.704773
vn 0.000000 0.050161 0.998741
vn 0.000000 0.050161 0.998741
vn 0.000000 0.050161 0.998741
vn 0.000000 0.050161 0.998741
vn 0.000000 1.000000 -0.000000
vn 0.000000 1.000000 -0.000000
vn 0.000000 1.000000 -0.000000
vn 0.000000 1.000000 -0.000000
vn -0.000022 0.136818 -0.990596
vn -0.000022 0.136818 -0.990596
vn -0.000022 0.136818 -0.990596
vn -0.000022 0.136818 -0.990596
vn 0.000000 -1.000000 0.000000
vn 0.000000 -1.000000 0.000000
vn 0.000000 -1.000000 0.000000
vn 0.000000 -1.000000 0.000000
vn 0.979772 0.079825 -0.183505
vn 0.979772 0.079825 -0.183505
vn 0.979772 0.079825 -0.183505
vn 0.979772 0.079825 -0.183505
vn -0.979772 0.079825 -0.183505
vn -0.979772 0.079825 -0.183505
vn -0.979772 0.079825 -0.183505
vn -0.979772 0.079825 -0.183505
vn -0.607164 -0.530879 0.591202
vn -0.607164 -0.530879 0.591202
vn -0.607164 -0.530879 0.591202
vn 0.618331 -0.542358 0.568783
vn 0.618331 -0.542358 0.568783
vn 0.618331 -0.542358 0.568783
vn -0.538717 0.611122 0.579926
vn -0.538717 0.611122 0.579926
vn -0.538717 0.611122 0.579926
vn 0.546903 0.619175 0.563489
vn 0.546903 0.619175 0.563489
vn 0.546903 0.619175 0.563489
vn -0.626772 0.559666 -0.542153
vn -0.626772 0.559666 -0.542153
vn -0.626772 0.559666 -0.542153
vn 0.617952 0.576498 -0.534590
vn 0.617952 0.576498 -0.534590
vn 0.617952 0.576498 -0.534590
vn -0.669962 -0.517620 -0.532185
vn -0.669962 -0.517620 -0.532185
vn -0.669962 -0.517621 -0.532185
vn 0.663920 -0.512455 -0.544610
vn 0.663920 -0.512455 -0.544610
vn 0.663920 -0.512455 -0.544610
s off
g pCube1
usemtl initialShadingGroup
f 1/1/1 3/2/2 19/3/3 21/29/4
f 2/5/5 1/4/6 6/36/7 5/24/8
f 3/33/9 2/5/10 8/12/11 7/34/12
f 4/6/13 6/7/14 22/23/15 24/8/16
f 5/24/17 4/9/18 12/37/19 11/13/20
f 7/10/21 9/25/22 14/17/23 13/11/24
f 9/25/25 8/12/26 11/13/27 10/26/28
f 10/26/29 12/14/30 18/38/31 17/18/32
f 13/15/33 15/27/34 20/21/35 19/16/36
f 15/27/37 14/17/38 17/18/39 16/28/40
f 16/28/41 18/19/42 24/20/43 23/22/44
f 21/29/45 20/21/46 23/22/47 22/23/48
f 2/5/49 5/24/50 11/13/51 8/12/52
f 9/25/53 10/26/54 17/18/55 14/17/56
f 15/27/57 16/28/58 23/22/59 20/21/60
f 21/29/61 22/23/62 6/7/63 1/1/64
f 4/9/65 24/30/66 18/31/67 12/37/68
f 19/32/69 3/33/70 7/34/71 13/35/72
f 1/4/73 2/5/74 3/33/75
f 4/9/76 5/24/77 6/36/78
f 7/34/79 8/12/80 9/25/81
f 10/26/82 11/13/83 12/37/84
f 13/11/85 14/17/86 15/27/87
f 16/28/88 17/18/89 18/38/90
f 19/16/91 20/21/92 21/29/93
f 22/23/94 23/22/95 24/20/96
